<?xml version="1.0" encoding="UTF-8" standalone="no"?>
<!-- Created with Inkscape (http://www.inkscape.org/) -->

<svg
   width="42mm"
   height="13mm"
   viewBox="0 0 42 13"
   version="1.1"
   id="svg5"
   xml:space="preserve"
   xmlns="http://www.w3.org/2000/svg"
   xmlns:svg="http://www.w3.org/2000/svg"><defs
     id="defs2" /><circle
     style="fill:#000000;fill-opacity:1;stroke:none;stroke-width:0.0499999;stroke-linecap:square;stroke-miterlimit:3.6;stroke-opacity:1;paint-order:fill markers stroke"
     id="background"
     cx="6.3249173"
     cy="6.5"
     r="6.2603064" /><path
     id="inner"
     style="fill:#fffff0;fill-opacity:1;stroke:none;stroke-width:0.192625;stroke-linecap:round;stroke-linejoin:round;stroke-dasharray:none;stroke-opacity:1;paint-order:fill markers stroke"
     d="M 6.325176,0.4794374 A 6.0204902,6.0204902 0 0 0 0.304355,6.5002585 6.0204902,6.0204902 0 0 0 6.325176,12.520563 6.0204902,6.0204902 0 0 0 12.34548,6.5002585 6.0204902,6.0204902 0 0 0 6.325176,0.4794374 Z M 4.662228,2.0343812 c 0.227552,-0.012048 0.467216,0.1059847 0.584461,0.3203939 0.05347,0.097778 0.06223,0.2612645 0.07751,1.4841472 0.01919,1.533707 0.01835,1.5308987 0.269234,1.6774169 0.325738,0.1902407 0.637097,-0.00233 0.710035,-0.4397664 0.06442,-0.3862458 0.563481,-0.5191631 0.879016,-0.2340942 0.227031,0.2051086 0.21794,0.140743 0.236678,1.6582967 0.01692,1.3703964 0.01857,1.3923024 0.09405,1.4980994 0.202103,0.283329 0.633062,0.280096 0.820622,-0.0062 C 8.405304,7.8835917 8.433584,7.5717027 8.481628,6.363317 8.534878,5.0238376 8.526568,5.0740056 8.722957,4.8776195 8.990413,4.6101602 9.33479,4.6484526 9.591121,4.9742545 l 0.07752,0.099219 0.0098,2.0531042 c 0.0082,1.784941 0.0021,1.760165 0.0026,1.873271 0.0035,0.0627 -0.0096,0.106895 -0.04909,0.108004 -0.04529,0.0013 -0.06116,-0.04372 -0.06305,-0.120406 -0.0023,-0.09339 -0.01226,-0.363899 -0.01447,-0.51108 -0.0097,-0.648774 0.0059,-0.707292 -0.06046,-0.796851 -0.198671,-0.268093 -0.671131,-0.255632 -0.877466,0.02325 -0.05842,0.07895 -0.06518,0.198856 -0.0863,1.488798 -0.02568,1.5682353 -0.01739,1.5162143 -0.28422,1.6960213 -0.121736,0.08204 -0.423341,0.105863 -0.568958,0.04496 C 7.564593,10.885525 7.386133,10.677454 7.349915,10.551173 7.330565,10.483693 7.316125,9.8909757 7.315805,9.1626277 7.314954,7.6926497 7.315067,7.6928137 6.999545,7.5363697 6.714479,7.3949417 6.47809,7.5448697 6.370126,7.9353117 6.244098,8.3909517 5.821692,8.5207437 5.453903,8.2169487 5.270314,8.0653067 5.262816,8.0080647 5.237896,6.5364313 5.214086,5.1292347 5.213496,5.1236981 5.035841,4.9577163 4.910421,4.8405483 4.628826,4.8209653 4.473601,4.9184423 4.246192,5.061237 4.233959,5.131659 4.174911,6.6346166 l -0.05323,1.3539221 -0.0894,0.117306 c -0.271081,0.355407 -0.779387,0.32411 -0.9741,-0.05995 -0.0958,-0.188959 -0.0912,-4.0918469 -0.09043,-4.1082761 5.11e-4,-0.036344 0.01623,-0.057057 0.04651,-0.057878 0.02563,-6.934e-4 0.0441,0.018777 0.04444,0.055811 1.85e-4,0.019564 0.0078,0.4095328 0.0098,0.6030639 0.0037,0.3547035 0.0052,0.6731226 0.01447,0.7141683 0.08066,0.3569652 0.642129,0.4561088 0.903304,0.1586467 0.115839,-0.1319349 0.107632,0.01057 0.115239,-1.9693888 0.0044,-1.1415512 -0.0027,-1.1082238 0.270784,-1.3074138 0.08574,-0.062456 0.186473,-0.094776 0.289905,-0.1002523 z m 0.04082,0.1126547 c -0.13262,0.00185 -0.266452,0.050872 -0.359152,0.1508951 -0.131841,0.1422589 -0.110437,0.1984916 0.04393,0.1157553 0.08403,-0.045032 0.193749,-0.068811 0.31781,-0.06873 0.130325,8.37e-5 0.225425,0.021843 0.304891,0.07028 0.134445,0.081964 0.171416,0.065528 0.110071,-0.049093 C 5.042478,2.2201724 4.873563,2.1446601 4.703053,2.1470353 Z m 0.04186,0.3033406 C 4.607172,2.4461065 4.463132,2.4897915 4.364053,2.5888694 4.232622,2.7203008 4.21603,2.8275547 4.339763,2.7464825 c 0.04421,-0.028964 0.144664,-0.069795 0.223242,-0.09095 0.161195,-0.043406 0.390436,-3.297e-4 0.495061,0.093017 0.07293,0.065093 0.10899,0.039092 0.07855,-0.056844 C 5.088796,2.5410386 4.921998,2.4558708 4.744908,2.4503765 Z M 4.704088,2.7469992 C 4.582838,2.7521792 4.459874,2.8020792 4.364057,2.8978944 4.200161,3.0617909 4.227992,3.1153246 4.422447,3.010549 4.556629,2.938251 4.617211,2.925974 4.762995,2.940269 4.860485,2.949839 4.980663,2.983801 5.030162,3.016233 5.145415,3.091747 5.178076,3.059221 5.102512,2.943886 5.013135,2.8074808 4.85998,2.7403337 4.704086,2.7469992 Z m 0.0088,0.2997233 c -0.14486,-0.00371 -0.28746,0.058292 -0.385506,0.1829346 -0.119626,0.1520837 -0.08503,0.1929766 0.08113,0.095601 0.09919,-0.058127 0.200028,-0.087333 0.30179,-0.087333 0.08506,0 0.212866,0.030504 0.287838,0.06873 C 5.202632,3.4109158 5.222173,3.3404071 5.03483,3.1759137 4.9392,3.0919517 4.825555,3.0496113 4.712886,3.0467226 Z M 8.027931,3.2219057 C 8.267098,3.2280157 8.503144,3.3498986 8.626344,3.5913921 8.919097,4.1652304 8.323738,4.8221903 7.745778,4.5629091 7.408699,4.4116891 7.22484,3.9688792 7.362855,3.6404848 7.482106,3.3567402 7.756875,3.2149855 8.027931,3.2219057 Z M 4.6886,3.3516135 c -0.134618,0.00765 -0.267694,0.067607 -0.357601,0.181901 -0.123719,0.1572845 -0.09773,0.1864908 0.07338,0.082166 0.0764,-0.046578 0.173457,-0.06873 0.30179,-0.06873 0.128337,0 0.224875,0.022151 0.301274,0.06873 0.158462,0.096614 0.192688,0.085306 0.120923,-0.039274 C 5.037312,3.4183434 4.861664,3.3417757 4.688583,3.3516135 Z m 0.04341,0.3033407 c -0.149134,-0.00461 -0.298676,0.057498 -0.401009,0.1875854 -0.123719,0.1572841 -0.09773,0.186491 0.07338,0.082166 0.157982,-0.096317 0.475158,-0.094455 0.63407,0.00362 0.142907,0.088321 0.184757,0.061196 0.09353,-0.060978 C 5.030131,3.7309454 4.881125,3.6595626 4.731991,3.6549542 Z m -0.0124,0.2909383 c -0.16028,-0.00203 -0.319387,0.076838 -0.406177,0.2237589 -0.06686,0.1131893 -0.02668,0.1271873 0.109037,0.038241 0.127672,-0.083648 0.476199,-0.08181 0.605648,0.0031 0.191117,0.1252251 0.1623,-0.021667 -0.03359,-0.171049 -0.08205,-0.062575 -0.178751,-0.092835 -0.274919,-0.094051 z m -0.0072,0.3121256 c -0.164926,2.598e-4 -0.327645,0.073291 -0.402559,0.2180746 -0.0676,0.1307213 -0.06351,0.1457721 0.02274,0.093534 0.04008,-0.02426 0.105522,-0.062966 0.145728,-0.0863 0.111421,-0.064676 0.367385,-0.052172 0.519348,0.025321 0.181458,0.092513 0.20364,0.086657 0.132292,-0.034106 C 5.044549,4.3299484 4.87734,4.2577576 4.712413,4.2580174 Z M 4.74135,4.5598085 C 4.573972,4.5594008 4.404245,4.6347115 4.314503,4.786668 4.245403,4.9036418 4.272103,4.9118039 4.414243,4.817674 4.559865,4.721235 4.879361,4.723323 5.038495,4.821804 5.170238,4.903224 5.210426,4.89177 5.155283,4.788731 5.073753,4.6363853 4.908734,4.560212 4.741355,4.5598044 Z m 2.047937,0.2490804 c -0.12081,0.00607 -0.23688,0.05654 -0.309025,0.1539958 -0.08878,0.1199309 -0.06295,0.1447449 0.07803,0.074414 0.149265,-0.074459 0.439856,-0.051038 0.573092,0.046509 0.115428,0.084509 0.147624,0.04427 0.06511,-0.081649 C 7.107894,4.8669333 6.944611,4.8010901 6.789284,4.8088889 Z m 2.314587,0.00827 c -0.115961,0.00332 -0.232542,0.055491 -0.328145,0.1586467 -0.125554,0.135476 -0.10534,0.1559908 0.07441,0.076481 0.187421,-0.082906 0.406184,-0.068441 0.574642,0.03824 0.128227,0.081186 0.151494,0.066424 0.07648,-0.048059 C 9.400834,4.8892779 9.252911,4.8128921 9.103817,4.8171571 Z m -2.2965,0.2852539 c -0.109006,-2.48e-4 -0.214402,0.041866 -0.291972,0.1286743 -0.114791,0.1284618 -0.101315,0.1581868 0.04858,0.1059367 0.163261,-0.056914 0.41007,-0.044239 0.54622,0.028422 0.148291,0.079129 0.170536,0.063045 0.08113,-0.058911 C 7.093302,5.1728198 6.947526,5.1027318 6.807376,5.1024129 Z m 2.323889,0.012402 c -0.110952,-0.00313 -0.226284,0.036605 -0.323494,0.1219563 -0.164952,0.1448264 -0.158503,0.2215083 0.01085,0.1307414 0.07423,-0.039796 0.193465,-0.068807 0.283186,-0.06873 0.09432,6.87e-5 0.199282,0.027016 0.267684,0.06873 0.157371,0.095948 0.193294,0.085626 0.121957,-0.03514 C 9.409556,5.1937444 9.273914,5.1188367 9.131261,5.1148148 Z m -0.02894,0.298173 c -0.133126,0 -0.266263,0.054652 -0.358117,0.1638143 -0.123562,0.1468473 -0.110284,0.1801797 0.03979,0.099735 0.08213,-0.044019 0.193938,-0.06873 0.310576,-0.06873 0.115022,0 0.232455,0.025453 0.318327,0.069246 0.157453,0.08033 0.172617,0.048392 0.04754,-0.1002523 C 9.368532,5.4676383 9.235393,5.4129864 9.102267,5.4129864 Z m -2.316654,5.167e-4 c -0.132115,0.00545 -0.257562,0.060203 -0.324528,0.1674317 -0.06164,0.098702 -0.0234,0.1126913 0.120406,0.044442 0.152331,-0.072285 0.383353,-0.051407 0.542086,0.049093 0.124794,0.079015 0.15145,0.065654 0.09198,-0.045475 C 7.136133,5.4804877 6.955527,5.4064989 6.785665,5.4135054 Z m -1.37666,0.151412 c -0.04225,0.00306 -0.01585,0.072003 0.08372,0.1715657 0.170409,0.170408 0.394633,0.2038086 0.576193,0.0863 C 6.159552,5.7641232 6.265217,5.609801 6.23532,5.579903 6.22347,5.568058 6.18737,5.576973 6.15522,5.600057 5.969408,5.7329169 5.719223,5.7347846 5.508748,5.604707 5.461538,5.575528 5.428218,5.563526 5.409008,5.564916 Z m -1.381311,0.01912 c -0.02386,0.0022 -0.06873,0.018312 -0.115239,0.042375 -0.15146,0.078326 -0.57758,0.075892 -0.699699,-0.00413 -0.170012,-0.1113963 -0.08917,0.082033 0.08423,0.2015381 0.109385,0.075393 0.382063,0.07639 0.538985,0.00207 0.117108,-0.055572 0.245002,-0.2019959 0.208256,-0.2387451 -0.0026,-0.00257 -0.0086,-0.00383 -0.01654,-0.0031 z m 2.801896,0.1178222 c -0.134297,-0.00565 -0.26835,0.044862 -0.349333,0.1539958 -0.08968,0.1208476 -0.06348,0.1432889 0.09147,0.078548 0.175878,-0.073487 0.332365,-0.064921 0.507463,0.028422 0.173081,0.09228 0.205187,0.067682 0.101802,-0.077515 C 7.098386,5.7692911 6.963893,5.7075101 6.829597,5.7018581 Z m 2.24224,0.00723 c -0.128402,0.006 -0.253702,0.058737 -0.338481,0.1565796 -0.130793,0.150948 -0.110007,0.1823698 0.06305,0.094568 0.16113,-0.08175 0.498712,-0.079476 0.623734,0.00413 0.128519,0.085948 0.134374,-0.013892 0.0078,-0.1312581 C 9.331507,5.7437402 9.200288,5.7030799 9.071886,5.7090847 Z M 5.411076,5.8672186 c -0.027,0.00366 -0.01331,0.039755 0.03824,0.1100708 C 5.589392,6.1683586 5.823938,6.234714 6.024475,6.1395534 6.143834,6.0829104 6.29013,5.8812996 6.21051,5.8832383 6.18585,5.8836481 6.13556,5.9071673 6.098889,5.9349143 6.001779,6.0083643 5.708883,5.9991133 5.548535,5.9173443 5.477735,5.8812483 5.432077,5.8643713 5.411076,5.8672186 Z m -1.395264,0.021704 c -0.02604,-4.189e-4 -0.08034,0.017078 -0.130225,0.042891 -0.13658,0.07063 -0.549422,0.072534 -0.641304,0.0031 C 3.108209,5.8319963 3.074197,5.9246026 3.203463,6.046018 3.351366,6.1849664 3.52241,6.2195024 3.750717,6.1560888 3.877725,6.1207958 4.092474,5.9124085 4.025119,5.8899552 c -0.0025,-8.213e-4 -0.0056,-9.737e-4 -0.0093,-0.00103 z M 6.814608,6.0057114 C 6.667841,6.0028914 6.525347,6.0650774 6.457007,6.19278 6.404307,6.291252 6.435967,6.3137548 6.531937,6.246523 6.641248,6.169958 6.956478,6.176378 7.110197,6.258409 7.255876,6.336146 7.275333,6.324688 7.198047,6.206733 7.112383,6.0760818 6.961318,6.0085371 6.814552,6.0057151 Z m 2.264978,0.00258 c -0.123727,0.00213 -0.246679,0.049787 -0.338998,0.1421102 -0.137461,0.1374597 -0.110096,0.1866892 0.06098,0.1090372 0.08029,-0.03643 0.215987,-0.066761 0.301274,-0.067179 0.0908,-4.097e-4 0.208065,0.027437 0.283187,0.067696 0.159304,0.085385 0.182007,0.012278 0.03772,-0.1214396 C 9.327639,6.0494382 9.20331,6.006162 9.079584,6.0082916 Z M 5.408492,6.1498848 c -0.03765,8.419e-4 -0.01581,0.065238 0.07028,0.1581299 C 5.656246,6.499509 5.895609,6.5381892 6.077185,6.4041327 6.262656,6.2672043 6.265546,6.1551486 6.081285,6.2470363 5.93348,6.3207733 5.638559,6.2930293 5.496308,6.1917423 5.455228,6.1624913 5.425578,6.1495013 5.408458,6.1498843 Z m -1.366325,0.00723 c -0.0084,0 -0.08302,0.030348 -0.165365,0.067696 -0.196677,0.089247 -0.456936,0.089717 -0.622701,0.00103 -0.153641,-0.082346 -0.17536,-0.026999 -0.04496,0.1136881 0.07654,0.08259 0.123514,0.1029971 0.312126,0.135909 0.07746,0.013509 0.239214,-0.023854 0.346232,-0.080098 0.06342,-0.033346 0.213652,-0.2382284 0.174666,-0.2382284 z m 5.04362,0.142627 c -0.115538,-2.857e-4 -0.231224,0.039605 -0.326079,0.1193725 -0.142334,0.1197686 -0.143886,0.2069596 -0.0026,0.133842 0.05824,-0.030141 0.189997,-0.05271 0.310058,-0.05271 v 5.168e-4 c 0.114889,0 0.262635,0.022235 0.328146,0.049609 0.15562,0.065024 0.164956,-0.00528 0.01705,-0.1297079 C 9.316972,6.3403992 9.201304,6.300027 9.085767,6.2997414 Z m -2.252576,0.0062 c -0.119165,-0.00243 -0.23757,0.037634 -0.315226,0.1245402 -0.123192,0.137861 -0.120535,0.1882687 0.0067,0.1224732 0.147682,-0.07637 0.475258,-0.06824 0.601513,0.014986 0.123107,0.081149 0.148656,0.065219 0.08527,-0.053227 C 7.140568,6.3822381 6.986408,6.3090699 6.833196,6.3059414 Z M 5.412626,6.4511526 c -0.03084,-0.00188 -0.01872,0.035542 0.03566,0.1131714 0.142392,0.203295 0.41999,0.2666492 0.624251,0.1421102 C 6.287134,6.5755987 6.268732,6.4790054 6.044117,6.5565725 5.86308,6.6190855 5.688409,6.5994855 5.51495,6.4971445 5.46531,6.4678575 5.43113,6.4522805 5.412631,6.4511525 Z m -1.418518,0.025838 c -0.02261,0.00155 -0.06437,0.015939 -0.107487,0.038241 -0.136957,0.070825 -0.523756,0.071701 -0.659391,0.00155 -0.110071,-0.056923 -0.120383,-0.047921 -0.0646,0.056327 0.09813,0.183365 0.409783,0.254612 0.639238,0.1457275 0.117105,-0.055573 0.244484,-0.2025125 0.207739,-0.2392619 -0.0026,-0.00257 -0.008,-0.0031 -0.0155,-0.00258 z M 9.070284,6.5994638 C 8.939333,6.6035438 8.806076,6.6536198 8.69873,6.7513925 8.538646,6.8972009 8.590245,6.9375772 8.811385,6.8397595 8.999781,6.7564235 9.282351,6.7688925 9.431502,6.8666315 9.537677,6.9361995 9.572784,6.9070775 9.502812,6.8072035 9.403232,6.6650335 9.238645,6.5942187 9.07028,6.5994643 Z m -2.264978,0.00362 C 6.722266,6.6000938 6.642596,6.6159528 6.58258,6.6552768 6.393281,6.7793093 6.376808,6.9220734 6.56294,6.825809 6.710813,6.749341 6.996461,6.770932 7.131381,6.869217 7.244546,6.951649 7.262997,6.947491 7.230601,6.845446 7.186731,6.707421 6.98793,6.6096698 6.80525,6.6030946 Z M 5.416243,6.7555293 c -0.02853,0.00273 -0.01942,0.038176 0.02532,0.1064534 0.13101,0.1999483 0.371921,0.27068 0.581876,0.171049 C 6.135022,6.9800837 6.238205,6.8535107 6.20069,6.8159907 6.18909,6.8043887 6.14951,6.8137107 6.11284,6.8366617 6.005671,6.9035887 5.70136,6.8879547 5.551634,6.8077227 5.483294,6.7710927 5.438428,6.7534087 5.416241,6.7555297 Z m -1.408183,0.00827 c -0.02072,-3.236e-4 -0.06895,0.016358 -0.125056,0.044958 -0.180265,0.091965 -0.457975,0.092428 -0.628903,0.00103 -0.141884,-0.076047 -0.169582,-0.037387 -0.06718,0.093018 0.13438,0.17111 0.351877,0.2213119 0.567407,0.1312582 v -5.168e-4 c 0.114668,-0.047913 0.264584,-0.1973005 0.264584,-0.2635498 0,-0.00418 -0.0039,-0.00609 -0.01085,-0.0062 z m 5.11235,0.1255738 c -0.154733,-0.00319 -0.320339,0.05064 -0.425297,0.1632975 -0.126279,0.1355461 -0.105412,0.1587711 0.07545,0.083199 0.158847,-0.066372 0.492118,-0.065747 0.620118,10e-4 0.121879,0.06356 0.149639,0.04292 0.09043,-0.067696 C 9.418971,6.9530644 9.275143,6.8925332 9.12041,6.8893397 Z m -2.335775,0.00362 c -0.128586,0.00109 -0.238776,0.061422 -0.312642,0.1741496 -0.07503,0.114508 -0.04661,0.138712 0.08372,0.071314 0.145584,-0.075283 0.410141,-0.069114 0.537435,0.0124 0.128104,0.08205 0.154512,0.08535 0.154512,0.01809 0,-0.084992 -0.159262,-0.2092598 -0.329179,-0.256832 -0.04629,-0.012961 -0.09098,-0.019484 -0.133842,-0.01912 z M 5.410559,7.0428548 c -0.02645,8.717e-4 -0.01058,0.036522 0.04082,0.1111049 0.158701,0.230263 0.421472,0.290133 0.625802,0.14211 0.177958,-0.128917 0.190614,-0.2514935 0.01654,-0.160714 -0.148574,0.07748 -0.357764,0.06492 -0.541052,-0.032556 -0.07529,-0.04003 -0.12154,-0.060623 -0.14211,-0.059945 z m -1.403015,0.00723 c -0.0085,0 -0.0825,0.030865 -0.164848,0.068213 -0.191772,0.087019 -0.392131,0.087277 -0.561206,0.00103 -0.159226,-0.081178 -0.185215,-0.068284 -0.105937,0.052709 0.129118,0.197056 0.421261,0.255059 0.641305,0.127124 0.07758,-0.04511 0.233726,-0.2490772 0.190686,-0.2490772 z m 5.105114,0.1441769 c -0.164477,-0.0032 -0.341967,0.04966 -0.452168,0.167949 -0.126836,0.136138 -0.07584,0.182727 0.08475,0.07751 0.122093,-0.08 0.553323,-0.07689 0.678512,0.0052 0.05907,0.0387 0.09095,0.04555 0.09095,0.01912 0,-0.169018 -0.190572,-0.265605 -0.402043,-0.269751 z m -2.303735,0.0016 c -0.124569,0.0056 -0.24734,0.06202 -0.328662,0.171565 -0.09273,0.124913 -0.0633,0.142537 0.0987,0.05995 0.175933,-0.08969 0.315508,-0.08616 0.500228,0.01292 0.172147,0.09235 0.197896,0.08835 0.137976,-0.02119 -0.08432,-0.154184 -0.248084,-0.230456 -0.408244,-0.223242 z m -3.655591,0.142627 c -0.03345,-0.0018 -0.03191,0.03931 0.01447,0.115755 0.118097,0.194635 0.377538,0.26292 0.599446,0.157613 0.114212,-0.05419 0.244922,-0.20208 0.209807,-0.237195 -0.0092,-0.0092 -0.06151,0.0066 -0.116272,0.03514 -0.154383,0.08051 -0.498212,0.06922 -0.611849,-0.02015 -0.04301,-0.03384 -0.07553,-0.05009 -0.0956,-0.05116 z m 2.264978,0.0067 c -0.03327,-0.002 -0.02252,0.03091 0.02325,0.10077 0.149168,0.227654 0.480185,0.293247 0.670243,0.133325 0.172194,-0.144892 0.149117,-0.215018 -0.04392,-0.134359 -0.173722,0.07259 -0.294667,0.06447 -0.487309,-0.03307 -0.08409,-0.04257 -0.136386,-0.06507 -0.162264,-0.06666 z m -2.271696,0.306442 c -0.02703,0.0022 -0.01566,0.03632 0.02894,0.104386 0.114698,0.175052 0.371665,0.253289 0.54467,0.165881 0.141371,-0.07143 0.264583,-0.18419 0.264583,-0.242362 0,-0.03375 -0.03316,-0.02766 -0.128157,0.02325 -0.165082,0.08848 -0.402289,0.08831 -0.575159,0 -0.06966,-0.03552 -0.113856,-0.05285 -0.134876,-0.05116 z m 2.300118,0.02946 c -0.06546,0.0059 0.0067,0.123712 0.1726,0.218592 0.15728,0.08998 0.287719,0.09779 0.426847,0.02584 0.09787,-0.05061 0.193687,-0.17735 0.15968,-0.211357 -0.0094,-0.0094 -0.04814,-3.12e-4 -0.0863,0.02015 -0.10336,0.05532 -0.439619,0.04502 -0.559656,-0.01705 -0.05408,-0.02797 -0.09135,-0.03814 -0.113172,-0.03617 z m -2.307869,0.244947 c -0.01913,0.0029 -0.0026,0.04107 0.04393,0.119889 0.09866,0.167009 0.346276,0.248212 0.533301,0.175183 0.109175,-0.04263 0.234094,-0.166007 0.234094,-0.23151 0,-0.04755 -0.01099,-0.04707 -0.09302,0.0067 -0.138539,0.09077 -0.44653,0.08263 -0.606164,-0.01602 -0.06094,-0.03766 -0.09726,-0.0565 -0.112138,-0.05426 z m 2.272729,0.01602 c -0.03483,0.0046 0.0031,0.06513 0.114722,0.176734 0.17246,0.17246 0.411764,0.190627 0.585494,0.04444 0.150864,-0.126941 0.143637,-0.197919 -0.01344,-0.132291 -0.175885,0.07349 -0.364201,0.06136 -0.545703,-0.03514 -0.07298,-0.0388 -0.120178,-0.05648 -0.141077,-0.05374 z m 2.101681,0.271818 c -0.04819,-0.0024 -0.03507,0.04925 0.04806,0.138493 0.163638,0.175645 0.39152,0.215436 0.578776,0.101286 0.226889,-0.138312 0.297229,-0.318747 0.07855,-0.201538 -0.0796,0.04266 -0.194084,0.06873 -0.301273,0.06873 -0.107184,0 -0.221673,-0.02606 -0.301274,-0.06873 -0.04638,-0.02486 -0.08093,-0.03717 -0.102836,-0.03824 z m -2.836519,0.149345 c 0.339341,-0.0079 0.688431,0.218216 0.71055,0.658875 0.02637,0.525548 -0.510847,0.886882 -0.973067,0.65474 -0.258529,-0.129842 -0.421208,-0.442655 -0.381372,-0.733288 0.05272,-0.384648 0.34447,-0.57338 0.643889,-0.580327 z m 3.701066,0.114205 c -0.01495,-9.07e-4 -0.07973,0.02682 -0.15658,0.0677 -0.19509,0.103733 -0.395696,0.109369 -0.577742,0.01654 -0.145236,-0.07405 -0.190895,-0.06488 -0.133842,0.02687 0.117159,0.188395 0.42554,0.267961 0.629935,0.162264 0.08716,-0.04507 0.241329,-0.218524 0.241329,-0.271301 0,-0.0013 -9.64e-4,-0.0019 -0.0031,-0.0021 z m -0.852145,0.329696 c -0.03523,-0.0015 -0.03753,0.03002 5.17e-4,0.09095 0.120117,0.192339 0.393715,0.256778 0.614433,0.144178 0.125615,-0.06408 0.233197,-0.190556 0.19482,-0.228927 -0.0092,-0.0092 -0.06395,0.0074 -0.12144,0.03721 -0.140778,0.0728 -0.464166,0.07064 -0.590661,-0.0041 -0.04333,-0.0256 -0.07653,-0.03838 -0.09767,-0.03927 z m 0.818038,0.276469 c -0.02591,0.0015 -0.08409,0.02614 -0.139526,0.05994 -0.1492,0.09096 -0.385351,0.09167 -0.561723,0.0016 -0.188448,-0.09608 -0.225515,-0.04465 -0.07183,0.09973 0.172413,0.16197 0.367889,0.190913 0.575675,0.08527 v 5.17e-4 c 0.10738,-0.0546 0.254305,-0.23046 0.206189,-0.246497 -0.0023,-7.62e-4 -0.0051,-7.36e-4 -0.0088,-5.16e-4 z m -0.859896,0.272851 c -0.02539,-0.0024 -0.01333,0.03067 0.02791,0.101286 0.119355,0.204346 0.419923,0.293297 0.627351,0.186035 0.102179,-0.05284 0.255008,-0.221971 0.226343,-0.250631 -0.009,-0.009 -0.07234,0.01 -0.14056,0.04237 -0.178768,0.08483 -0.462478,0.07987 -0.609265,-0.01085 -0.06953,-0.04297 -0.112027,-0.06637 -0.131775,-0.06821 z m 0.02015,0.306958 c -0.04068,0.002 -0.01746,0.08596 0.07855,0.177767 0.178221,0.1704243 0.326397,0.1963943 0.547254,0.09612 0.08707,-0.03951 0.165307,-0.106978 0.198437,-0.171049 0.06496,-0.125602 0.06095,-0.12681 -0.118856,-0.03307 -0.169356,0.08827 -0.506483,0.08041 -0.611332,-0.01447 -0.04389,-0.03972 -0.07556,-0.05618 -0.09405,-0.05529 z m 0.855245,0.294556 c -0.01736,9.91e-4 -0.0473,0.01336 -0.08992,0.03927 -0.214403,0.1303433 -0.39659,0.1283723 -0.721403,-0.0093 -0.09274,-0.03931 -0.07163,0.03327 0.04237,0.1472783 0.204999,0.204999 0.492669,0.192609 0.696081,-0.02946 0.08765,-0.09568 0.111065,-0.1499743 0.07286,-0.1477943 z m 0.0057,0.2971393 c -0.01811,-6.91e-4 -0.07051,0.02193 -0.126091,0.05581 -0.155187,0.09461 -0.448071,0.09558 -0.622701,0.0021 -0.145565,-0.07802 -0.16181,-0.0521 -0.05374,0.08527 0.154517,0.19644 0.375814,0.234499 0.60048,0.102836 0.137845,-0.08078 0.245061,-0.207108 0.207739,-0.244429 -0.0011,-0.0011 -0.0031,-0.0015 -0.0057,-0.0016 z m -0.0047,0.29559 c -0.02187,-6.61e-4 -0.06834,0.01772 -0.13901,0.05529 -0.192329,0.102264 -0.355837,0.106749 -0.558105,0.01499 -0.173061,-0.07852 -0.20456,-0.06935 -0.129192,0.03824 0.173743,0.248048 0.530583,0.274844 0.732256,0.05478 0.09885,-0.107867 0.130504,-0.162196 0.09405,-0.163297 z" /><g
     id="name"
     style="fill-opacity:1;fill:#000000"><path
       d="M 15.397295,4.7506433 14.963214,5.9929439 H 14.655222 L 16.019479,2.098611 17.385803,5.9929439 H 17.077811 L 16.641663,4.7506433 Z M 16.544511,4.4715908 16.019479,2.9750425 15.496514,4.4715908 Z"
       id="path5014"
       style="font-size:4.23333px;line-height:1.25;font-family:'LT Oksana';-inkscape-font-specification:'LT Oksana';letter-spacing:0.661458px;stroke-width:0.264583;fill-opacity:1;fill:#000000" /><path
       d="m 18.607433,4.1222584 q 0.365869,-0.3782712 0.830956,-0.3782712 0.188102,0 0.355534,0.053743 0.239778,0.080615 0.436149,0.2728514 0.171565,0.1715656 0.250113,0.3803382 0.07028,0.1674315 0.07028,0.3865394 V 5.9929439 H 20.269346 V 4.7981855 q -0.03101,-0.297656 -0.248047,-0.5146968 -0.241846,-0.2397784 -0.58291,-0.2397784 -0.338997,0 -0.578775,0.2397784 Q 18.623969,4.519133 18.6095,4.8436608 v 1.1492831 h -0.283187 v -2.224152 h 0.28112 z"
       id="path5016"
       style="font-size:4.23333px;line-height:1.25;font-family:'LT Oksana';-inkscape-font-specification:'LT Oksana';letter-spacing:0.661458px;stroke-width:0.264583;fill-opacity:1;fill:#000000" /><path
       id="path5018"
       d="m 22.747946,3.7440476 c -0.310057,0 -0.587044,0.126091 -0.830957,0.3782715 V 3.7688523 h -0.28112 v 2.2241536 h 0.283187 V 4.8437221 c 0.0096,-0.2163517 0.09302,-0.4030765 0.250114,-0.5601725 0.159852,-0.1598521 0.352778,-0.2397787 0.578776,-0.2397787 0.227376,0 0.42168,0.079927 0.58291,0.2397787 0.144694,0.1446937 0.227377,0.3162601 0.248047,0.5146972 v 1.1947591 c 0,0.246316 0.139427,0.379341 0.308668,0.54253 0.16924,0.163189 0.368294,0.311605 0.368294,0.509602 v 1.9781738 l -0.04134,-0.04547 c -0.220485,-0.219107 -0.485759,-0.328662 -0.795817,-0.328662 -0.310058,0 -0.575331,0.110244 -0.795817,0.330729 -0.219107,0.219108 -0.328662,0.483691 -0.328662,0.79375 0,0.3100583 0.109555,0.5753313 0.328662,0.7958173 0.220486,0.219108 0.485759,0.328662 0.795817,0.328662 0.310058,0 0.575331,-0.109551 0.795817,-0.328662 0.01378,-0.01515 0.02756,-0.03031 0.04134,-0.04547 v 0.374137 h 0.281119 V 7.0451379 c 0,-0.273363 -0.145599,-0.399535 -0.314839,-0.563056 -0.16924,-0.163521 -0.362122,-0.287635 -0.362122,-0.489076 v -1.155485 c 0,-0.1460718 -0.02343,-0.2749188 -0.07028,-0.3865397 C 23.737378,4.3117996 23.654006,4.1850196 23.539629,4.0706427 23.408716,3.9424852 23.263332,3.8515344 23.10348,3.7977911 22.991859,3.7619625 22.873347,3.7440476 22.747946,3.7440476 Z m 0.67076,5.1717771 c 0.2384,0 0.440972,0.08406 0.607715,0.252181 0.117135,0.117133 0.193614,0.250803 0.229444,0.401009 v 0.411345 c -0.03583,0.1502053 -0.112311,0.2838763 -0.229444,0.4010093 -0.166743,0.166744 -0.369315,0.250114 -0.607715,0.250114 -0.235644,0 -0.437528,-0.08337 -0.605647,-0.250114 -0.168121,-0.168121 -0.252181,-0.370693 -0.252181,-0.6077153 0,-0.237023 0.08406,-0.438906 0.252181,-0.605648 0.168119,-0.168121 0.370003,-0.252181 0.605647,-0.252181 z"
       style="font-size:4.23333px;line-height:1.25;font-family:'LT Oksana';-inkscape-font-specification:'LT Oksana';letter-spacing:0.661458px;stroke-width:0.264583;fill-opacity:1;fill:#000000" /><path
       d="M 26.68962,5.075171 V 4.6638269 Q 26.63588,4.4385179 26.460177,4.2628181 26.210064,4.0106374 25.852463,4.0106374 q -0.353467,0 -0.605647,0.2521807 -0.252181,0.2501138 -0.252181,0.6056473 0,0.3555336 0.252181,0.6077144 0.25218,0.2501137 0.605647,0.2501137 0.357601,0 0.607714,-0.2501137 0.1757,-0.1756998 0.229443,-0.4010088 z m 0,-0.9570467 V 3.7770601 h 0.28112 V 5.9929439 H 26.68962 V 5.6188066 q -0.02067,0.022738 -0.04134,0.045475 -0.330729,0.3286623 -0.795816,0.3286623 -0.465088,0 -0.795816,-0.3286623 -0.328662,-0.3307289 -0.328662,-0.7958164 0,-0.4650875 0.328662,-0.7937493 0.330728,-0.3307289 0.795816,-0.3307289 0.465087,0 0.795816,0.3286618 0.02067,0.022738 0.04134,0.045476 z"
       id="path5020"
       style="font-size:4.23333px;line-height:1.25;font-family:'LT Oksana';-inkscape-font-specification:'LT Oksana';letter-spacing:0.661458px;stroke-width:0.264583;fill-opacity:1;fill:#000000" /><path
       d="M 28.812487,5.9929439 Q 28.620251,5.9867429 28.463155,5.8606521 28.239913,5.7035559 28.231645,5.3955646 V 2.1399521 h 0.285253 V 5.298413 q 0,0.2542478 0.126091,0.33693 0.07855,0.062012 0.169498,0.068213 z"
       id="path5022"
       style="font-size:4.23333px;line-height:1.25;font-family:'LT Oksana';-inkscape-font-specification:'LT Oksana';letter-spacing:0.661458px;stroke-width:0.264583;fill-opacity:1;fill:#000000" /><path
       d="m 30.966359,4.0271738 q -0.370003,0 -0.632519,0.2645831 -0.262516,0.2625161 -0.262516,0.630452 0,0.3700029 0.262516,0.632519 0.262516,0.262516 0.632519,0.262516 0.37207,0 0.632519,-0.262516 0.262516,-0.2625161 0.262516,-0.632519 0,-0.3679359 -0.262516,-0.630452 -0.260449,-0.2645831 -0.632519,-0.2645831 z m 1.169953,0.8950351 q 0,0.485758 -0.343131,0.8288892 -0.341064,0.3431308 -0.826822,0.3431308 -0.483691,0 -0.828889,-0.3431308 -0.343131,-0.3431312 -0.343131,-0.8288892 0,-0.483691 0.343131,-0.8268223 0.345198,-0.3451982 0.828889,-0.3451982 0.485758,0 0.826822,0.3451982 0.343131,0.3431313 0.343131,0.8268223 z"
       id="path5024"
       style="font-size:4.23333px;line-height:1.25;font-family:'LT Oksana';-inkscape-font-specification:'LT Oksana';letter-spacing:0.661458px;stroke-width:0.264583;fill-opacity:1;fill:#000000" /><path
       d="m 34.290186,4.072649 q -0.328662,0 -0.564307,0.2356444 -0.233577,0.2356443 -0.233577,0.5643061 0,0.3286619 0.233577,0.5643062 0.235645,0.2335773 0.564307,0.2335773 0.332795,0 0.566373,-0.2335773 0.235644,-0.2356443 0.235644,-0.5643062 0,-0.3286618 -0.235644,-0.5643061 Q 34.622981,4.072649 34.290186,4.072649 Z m -0.355534,2.0773909 0.150895,-0.235644 Q 33.78169,5.8606521 33.543978,5.6208736 33.231853,5.3108153 33.231853,4.8725995 q 0,-0.4402828 0.310058,-0.7503411 0.312126,-0.3121254 0.748275,-0.3121254 0.442349,0 0.750341,0.3121254 0.02894,0.026872 0.04754,0.051676 l 0.08061,-0.1074869 0.19637,0.186035 -0.113688,0.1632974 q 0.09922,0.2067055 0.09922,0.4568192 0,0.4382158 -0.310058,0.7482741 -0.272852,0.2728514 -0.640788,0.3059247 l -0.05994,0.09302 h 0.02067 q 0.130225,0 0.264584,0.04754 0.299723,0.10542 0.438215,0.39274 0.07648,0.163298 0.07648,0.328662 0,0.128158 -0.04754,0.260449 -0.10542,0.2997228 -0.394808,0.4361488 -0.163297,0.07648 -0.330728,0.07648 -0.128158,0 -0.258382,-0.04547 -0.142627,-0.05168 -0.287321,-0.177767 l 0.229443,-0.132292 q 0.07441,0.05168 0.14056,0.07648 0.08475,0.03101 0.171565,0.03101 0.111621,0 0.223242,-0.05374 0.196371,-0.09302 0.266651,-0.2955888 0.03307,-0.09095 0.03307,-0.179834 0,-0.111621 -0.05168,-0.219108 -0.09302,-0.194303 -0.291455,-0.264583 -0.08888,-0.03101 -0.175699,-0.03101 -0.113688,0 -0.223242,0.05168 z"
       id="path5026"
       style="font-size:4.23333px;line-height:1.25;font-family:'LT Oksana';-inkscape-font-specification:'LT Oksana';letter-spacing:0.661458px;stroke-width:0.264583;fill-opacity:1;fill:#000000" /><path
       d="m 36.783053,5.1103109 q 0,0.258382 0.179834,0.4382158 0.181901,0.1777668 0.434082,0.1777668 0.256315,0 0.436148,-0.1798339 0.165365,-0.1632973 0.177767,-0.3927405 V 3.7687919 h 0.28112 v 1.3849272 q -0.01447,0.3431312 -0.262516,0.5911779 -0.262516,0.2625159 -0.632519,0.2625159 -0.370003,0 -0.632519,-0.2625159 Q 36.516403,5.4968503 36.501934,5.1537191 V 3.7687919 h 0.281119 z"
       id="path5028"
       style="font-size:4.23333px;line-height:1.25;font-family:'LT Oksana';-inkscape-font-specification:'LT Oksana';letter-spacing:0.661458px;stroke-width:0.264583;fill-opacity:1;fill:#000000" /><path
       d="m 17.957502,9.3766617 q -0.152962,0.6883303 -0.711067,1.1265453 -0.529167,0.413411 -1.178222,0.413411 -0.130225,0 -0.264583,-0.01654 -0.804085,-0.101286 -1.302245,-0.740006 -0.415478,-0.5353673 -0.415478,-1.1782213 0,-0.128158 0.01654,-0.262517 0.09922,-0.797883 0.740006,-1.296043 0.531233,-0.4134108 1.180289,-0.4134108 0.130224,0 0.264583,0.01654 0.378271,0.04754 0.706933,0.2253088 l -0.229443,0.223242 q -0.24598,-0.115755 -0.516764,-0.148828 -0.113688,-0.01447 -0.223242,-0.01447 -0.54777,0 -0.996321,0.349332 -0.541569,0.421679 -0.624251,1.097607 -0.01447,0.111621 -0.01447,0.221174 0,0.545703 0.351399,0.994254 0.419613,0.5395023 1.097607,0.6263183 0.113688,0.01447 0.225309,0.01447 0.54777,0 0.996321,-0.349332 0.446484,-0.3493323 0.584976,-0.8888343 z"
       style="font-size:4.23333px;line-height:1.25;font-family:'LT Oksana';-inkscape-font-specification:'LT Oksana';letter-spacing:0.661458px;stroke-width:0.264583;fill-opacity:1;fill:#000000"
       id="path5033" /><path
       d="m 20.049362,8.9322447 q -0.370003,0 -0.632519,0.264583 -0.262516,0.262516 -0.262516,0.630452 0,0.3700033 0.262516,0.6325193 0.262516,0.262516 0.632519,0.262516 0.37207,0 0.632519,-0.262516 0.262516,-0.262516 0.262516,-0.6325193 0,-0.367936 -0.262516,-0.630452 -0.260449,-0.264583 -0.632519,-0.264583 z m 1.169954,0.895035 q 0,0.4857583 -0.343132,0.8288903 -0.341064,0.343131 -0.826822,0.343131 -0.483691,0 -0.828889,-0.343131 -0.343131,-0.343132 -0.343131,-0.8288903 0,-0.483691 0.343131,-0.826822 0.345198,-0.345198 0.828889,-0.345198 0.485758,0 0.826822,0.345198 0.343132,0.343131 0.343132,0.826822 z"
       style="font-size:4.23333px;line-height:1.25;font-family:'LT Oksana';-inkscape-font-specification:'LT Oksana';letter-spacing:0.661458px;stroke-width:0.264583;fill-opacity:1;fill:#000000"
       id="path5035" /><path
       d="m 29.898882,9.1203467 q -0.119889,-0.113688 -0.204638,-0.113688 -0.08268,0.0041 -0.146761,0.07235 -0.06201,0.06615 -0.06408,0.173633 0,0.04134 0.02481,0.163297 l 0.190169,0.8020183 q 0.02687,0.14056 0.02687,0.188102 -0.0041,0.202571 -0.15503,0.359667 -0.148828,0.157097 -0.384472,0.169499 -0.204638,0 -0.386539,-0.1757 l 0.206705,-0.214973 q 0.117822,0.113688 0.192236,0.113688 0.09508,-0.0041 0.157097,-0.07028 0.06408,-0.06615 0.06614,-0.165365 0,-0.03721 -0.0248,-0.163297 -0.219108,-0.8640293 -0.219108,-1.0004553 0.0041,-0.200504 0.152962,-0.357601 0.148828,-0.157096 0.388606,-0.169498 0.202572,0 0.384473,0.1757 z"
       style="font-size:4.23333px;line-height:1.25;font-family:'LT Oksana';-inkscape-font-specification:'LT Oksana';letter-spacing:0.661458px;stroke-width:0.264583;fill-opacity:1;fill:#000000"
       id="path5041" /><path
       d="m 27.57577,9.3746767 c -0.03721,-0.06339 -0.08337,-0.123338 -0.138492,-0.179834 -0.170877,-0.169499 -0.376204,-0.254248 -0.615983,-0.254248 -0.238401,0 -0.44235,0.08475 -0.611848,0.254248 -0.0565,0.0565 -0.268354,0.299213 -0.243162,0.638115 z m 0.0496,1.2381663 c -0.221865,0.221863 -0.489892,0.332796 -0.804085,0.332796 -0.312815,0 -0.580843,-0.110932 -0.804085,-0.332796 -0.221864,-0.221864 -0.332796,-0.489892 -0.332796,-0.8040843 0,-0.312815 0.110932,-0.580154 0.332796,-0.802018 0.223242,-0.223242 0.49127,-0.334863 0.804085,-0.334863 0.314193,0 0.580583,0.112582 0.804085,0.332796 0.07935,0.07818 0.226252,0.267586 0.315209,0.497266 l -1.951705,0.5617443 c 0.0079,0.02668 0.01722,0.05281 0.02781,0.07839 0.04238,0.102319 0.105936,0.195853 0.190685,0.280603 0.170877,0.169499 0.375515,0.254248 0.613916,0.254248 0.239779,0 0.445106,-0.08475 0.615983,-0.254248 z"
       style="font-size:4.23333px;line-height:1.25;font-family:'LT Oksana';-inkscape-font-specification:'LT Oksana';fill-opacity:1;stroke-width:0.264583;fill:#000000"
       id="path2271" /><path
       d="m 41.330836,4.4696057 c -0.03721,-0.06339 -0.08337,-0.123338 -0.138492,-0.179834 -0.170877,-0.169499 -0.376204,-0.254248 -0.615983,-0.254248 -0.238401,0 -0.44235,0.08475 -0.611848,0.254248 -0.0565,0.0565 -0.268354,0.299213 -0.243162,0.638115 z m 0.0496,1.238166 c -0.221865,0.221863 -0.489892,0.332796 -0.804085,0.332796 -0.312815,0 -0.580843,-0.110932 -0.804085,-0.332796 -0.221864,-0.221864 -0.332796,-0.489892 -0.332796,-0.804084 0,-0.312815 0.110932,-0.580154 0.332796,-0.802018 0.223242,-0.223242 0.49127,-0.334863 0.804085,-0.334863 0.314193,0 0.580583,0.112582 0.804085,0.332796 0.07935,0.07818 0.226252,0.267586 0.315209,0.497266 l -1.951705,0.561744 c 0.0079,0.02668 0.01722,0.05281 0.02781,0.07839 0.04238,0.102319 0.105936,0.195853 0.190685,0.280603 0.170877,0.169499 0.375515,0.254248 0.613916,0.254248 0.239779,0 0.445106,-0.08475 0.615983,-0.254248 z"
       style="font-size:4.23333px;line-height:1.25;font-family:'LT Oksana';-inkscape-font-specification:'LT Oksana';fill-opacity:1;stroke-width:0.264583;fill:#000000"
       id="path2273" /></g></svg>
